<?xml version="1.0" encoding="UTF-8" standalone="no"?>
<!DOCTYPE svg PUBLIC "-//W3C//DTD SVG 1.1//EN"
 "http://www.w3.org/Graphics/SVG/1.1/DTD/svg11.dtd">
<!-- Generated by graphviz version 2.36.0 (20140111.2315)
 -->
<!-- Title: git Pages: 1 -->
<svg width="316pt" height="62pt"
 viewBox="0.00 0.00 316.00 62.00" xmlns="http://www.w3.org/2000/svg" xmlns:xlink="http://www.w3.org/1999/xlink">
<g id="graph0" class="graph" transform="scale(1 1) rotate(0) translate(4 58)">
<title>git</title>
<!-- 1 -->
<g id="node1" class="node"><title>1</title>
<polygon fill="none" stroke="black" points="308,-53.5 270,-53.5 270,-36.5 308,-36.5 308,-53.5"/>
<text text-anchor="middle" x="289" y="-43.1" font-family="Times,serif" font-size="8.00">master</text>
</g>
<!-- 2 -->
<g id="node2" class="node"><title>2</title>
<polygon fill="none" stroke="black" points="233.5,-16.5 192.5,-16.5 192.5,0.5 233.5,0.5 233.5,-16.5"/>
<text text-anchor="middle" x="213" y="-6.1" font-family="Times,serif" font-size="8.00">develop</text>
</g>
<!-- 2&#45;&gt;1 -->
<g id="edge2" class="edge"><title>2&#45;&gt;1</title>
<path fill="none" stroke="black" d="M230.792,-16.3959C242.902,-22.4511 259.179,-30.5897 271.275,-36.6374"/>
</g>
<!-- 5 -->
<g id="node3" class="node"><title>5</title>
<ellipse fill="black" stroke="black" cx="150" cy="-8" rx="5.4" ry="5.4"/>
</g>
<!-- 5&#45;&gt;2 -->
<g id="edge3" class="edge"><title>5&#45;&gt;2</title>
<path fill="none" stroke="black" d="M155.787,-8C163.595,-8 179.496,-8 192.4,-8"/>
</g>
<!-- 6 -->
<g id="node4" class="node"><title>6</title>
<ellipse fill="black" stroke="black" cx="102" cy="-8" rx="5.4" ry="5.4"/>
</g>
<!-- 6&#45;&gt;5 -->
<g id="edge4" class="edge"><title>6&#45;&gt;5</title>
<path fill="none" stroke="black" d="M107.579,-8C116.396,-8 135.637,-8 144.44,-8"/>
</g>
<!-- 7 -->
<g id="node5" class="node"><title>7</title>
<ellipse fill="black" stroke="black" cx="54" cy="-45" rx="5.4" ry="5.4"/>
</g>
<!-- 7&#45;&gt;1 -->
<g id="edge1" class="edge"><title>7&#45;&gt;1</title>
<path fill="none" stroke="black" d="M59.4464,-45C85.6189,-45 220.142,-45 269.668,-45"/>
</g>
<!-- 7&#45;&gt;6 -->
<g id="edge5" class="edge"><title>7&#45;&gt;6</title>
<path fill="none" stroke="black" d="M58.6095,-42.0967C67.1662,-35.2141 88.6125,-17.9639 97.2795,-10.9926"/>
</g>
<!-- 8 -->
<g id="node6" class="node"><title>8</title>
<ellipse fill="black" stroke="black" cx="6" cy="-45" rx="5.4" ry="5.4"/>
</g>
<!-- 8&#45;&gt;7 -->
<g id="edge6" class="edge"><title>8&#45;&gt;7</title>
<path fill="none" stroke="black" d="M11.5788,-45C20.3961,-45 39.637,-45 48.4397,-45"/>
</g>
</g>
</svg>
