<?xml version="1.0" encoding="UTF-8" standalone="no"?>
<!DOCTYPE svg PUBLIC "-//W3C//DTD SVG 1.1//EN"
 "http://www.w3.org/Graphics/SVG/1.1/DTD/svg11.dtd">
<!-- Generated by graphviz version 2.36.0 (20140111.2315)
 -->
<!-- Title: autogroups Pages: 1 -->
<svg width="448pt" height="100pt"
 viewBox="0.00 0.00 448.00 100.00" xmlns="http://www.w3.org/2000/svg" xmlns:xlink="http://www.w3.org/1999/xlink">
<g id="graph0" class="graph" transform="scale(1 1) rotate(0) translate(4 96)">
<title>autogroups</title>
<!-- 1 -->
<g id="node1" class="node"><title>1</title>
<polygon fill="none" stroke="black" points="440,-91.5 402,-91.5 402,-74.5 440,-74.5 440,-91.5"/>
<text text-anchor="middle" x="421" y="-81.1" font-family="Times,serif" font-size="8.00">master</text>
</g>
<!-- 2 -->
<g id="node2" class="node"><title>2</title>
<polygon fill="none" stroke="black" points="365.5,-53.5 324.5,-53.5 324.5,-36.5 365.5,-36.5 365.5,-53.5"/>
<text text-anchor="middle" x="345" y="-43.1" font-family="Times,serif" font-size="8.00">develop</text>
</g>
<!-- 2&#45;&gt;1 -->
<g id="edge2" class="edge"><title>2&#45;&gt;1</title>
<path fill="none" stroke="black" d="M362.423,-53.4334C374.771,-59.7744 391.603,-68.4177 403.878,-74.7209"/>
</g>
<!-- 3 -->
<g id="node3" class="node"><title>3</title>
<polygon fill="none" stroke="black" points="287.5,-16.5 240.5,-16.5 240.5,0.5 287.5,0.5 287.5,-16.5"/>
<text text-anchor="middle" x="264" y="-6.1" font-family="Times,serif" font-size="8.00">feature&#45;1</text>
</g>
<!-- 3&#45;&gt;2 -->
<g id="edge4" class="edge"><title>3&#45;&gt;2</title>
<path fill="none" stroke="black" d="M282.926,-16.3959C295.855,-22.4511 313.232,-30.5897 326.145,-36.6374"/>
</g>
<!-- 4 -->
<g id="node4" class="node"><title>4</title>
<ellipse fill="black" stroke="black" cx="198" cy="-8" rx="5.4" ry="5.4"/>
</g>
<!-- 4&#45;&gt;3 -->
<g id="edge5" class="edge"><title>4&#45;&gt;3</title>
<path fill="none" stroke="black" d="M203.603,-8C211.227,-8 226.961,-8 240.321,-8"/>
</g>
<!-- 5 -->
<g id="node5" class="node"><title>5</title>
<ellipse fill="black" stroke="black" cx="150" cy="-45" rx="5.4" ry="5.4"/>
</g>
<!-- 5&#45;&gt;2 -->
<g id="edge3" class="edge"><title>5&#45;&gt;2</title>
<path fill="none" stroke="black" d="M155.771,-45C178.99,-45 280.815,-45 324.253,-45"/>
</g>
<!-- 5&#45;&gt;4 -->
<g id="edge6" class="edge"><title>5&#45;&gt;4</title>
<path fill="none" stroke="black" d="M154.61,-42.0967C163.166,-35.2141 184.613,-17.9639 193.279,-10.9926"/>
</g>
<!-- 6 -->
<g id="node6" class="node"><title>6</title>
<ellipse fill="black" stroke="black" cx="102" cy="-45" rx="5.4" ry="5.4"/>
</g>
<!-- 6&#45;&gt;5 -->
<g id="edge7" class="edge"><title>6&#45;&gt;5</title>
<path fill="none" stroke="black" d="M107.579,-45C116.396,-45 135.637,-45 144.44,-45"/>
</g>
<!-- 7 -->
<g id="node7" class="node"><title>7</title>
<ellipse fill="black" stroke="black" cx="54" cy="-83" rx="5.4" ry="5.4"/>
</g>
<!-- 7&#45;&gt;1 -->
<g id="edge1" class="edge"><title>7&#45;&gt;1</title>
<path fill="none" stroke="black" d="M59.6948,-83C73.4301,-83 114.729,-83 149,-83 149,-83 149,-83 265,-83 314.514,-83 372.925,-83 401.864,-83"/>
</g>
<!-- 7&#45;&gt;6 -->
<g id="edge8" class="edge"><title>7&#45;&gt;6</title>
<path fill="none" stroke="black" d="M58.6095,-80.0182C67.1662,-72.9497 88.6125,-55.2331 97.2795,-48.0735"/>
</g>
<!-- 8 -->
<g id="node8" class="node"><title>8</title>
<ellipse fill="black" stroke="black" cx="6" cy="-83" rx="5.4" ry="5.4"/>
</g>
<!-- 8&#45;&gt;7 -->
<g id="edge9" class="edge"><title>8&#45;&gt;7</title>
<path fill="none" stroke="black" d="M11.5788,-83C20.3961,-83 39.637,-83 48.4397,-83"/>
</g>
</g>
</svg>
